<svg width="253" height="241" viewBox="0 0 253 241" fill="none" xmlns="http://www.w3.org/2000/svg">
<path d="M252.704 85.0459C252.834 85.1291 252.823 85.3227 252.684 85.3914C251.602 85.93 250.531 86.4961 249.423 86.9871C240.915 90.7616 232.772 95.1569 225.854 101.472C223.489 103.631 221.35 106.081 219.348 108.59C217.448 110.966 216.814 113.877 216.842 116.899C216.846 117.238 216.883 117.577 216.933 117.933C217.038 118.689 217.695 119.255 218.458 119.255H226.775C227.611 119.255 228.295 119.935 228.225 120.767C227.932 124.246 226.645 127.26 224.502 129.805C221.47 133.403 220.234 137.679 218.804 141.972C216.719 148.23 216.579 154.681 217.073 161.083C217.588 167.756 215.116 173.076 211.127 178.039C207.996 181.937 204.963 185.917 201.848 189.831C198.654 193.844 197.464 198.375 197.806 203.469C198.247 209.998 199.779 216.293 201.209 222.65C202.375 227.839 202.758 233.2 203.463 238.488C203.592 239.439 202.407 240.069 201.516 239.71C200.663 239.366 199.881 239.029 199.202 238.545C195.226 235.712 192.779 231.675 190.776 227.337C189.838 225.303 188.927 223.254 188.015 221.23C187.852 220.867 187.551 220.585 187.181 220.437C184.778 219.471 183.951 218.803 183.235 217.24C182.978 216.678 182.444 216.282 181.826 216.279C177.741 216.26 173.679 216.694 169.765 218.049C162.571 220.537 155.364 222.999 148.273 225.75C140.37 228.817 132.19 229.438 123.958 228.447C116.075 227.497 108.283 225.787 100.446 224.459C97.8171 224.015 95.1552 223.752 92.514 223.353C91.8588 223.254 91.2077 222.999 90.6061 222.707C85.8593 220.397 81.1702 217.963 76.378 215.751C71.182 213.354 67.1686 215.064 65.2443 220.384C64.4532 222.572 63.9835 224.87 63.217 227.066C62.0468 230.417 60.823 233.759 59.4756 237.041C58.6138 239.142 57.0506 240.319 54.7839 240.785C53.879 240.971 53.1209 240.172 53.1936 239.251C53.3441 237.343 53.4679 235.491 53.781 233.673C54.5145 229.426 55.7506 225.248 56.1998 220.976C56.6448 216.709 56.4264 212.367 56.377 208.062C56.3687 207.437 55.7919 206.713 55.3015 206.212C51.7867 202.643 48.2719 199.074 44.6706 195.595C40.8591 191.911 37.1547 188.104 34.6083 183.45C32.2925 179.219 28.6747 178.614 24.6654 179.396C18.2127 180.654 11.8383 182.29 5.43085 183.779C3.82936 184.151 2.23865 184.567 0.645303 184.965C0.447873 185.015 0.242388 184.923 0.147559 184.743C0.0593312 184.575 0.0875822 184.37 0.217523 184.232C0.98205 183.422 1.69611 182.659 2.55472 181.945C7.40458 177.915 12.3657 174.014 17.1578 169.918C20.0175 167.472 22.6835 164.791 25.3288 162.11C25.8604 161.572 26.1942 160.54 26.1406 159.767C24.8138 140.615 29.2722 122.643 37.2413 105.395C40.5484 98.2342 43.9809 91.1305 47.4476 83.8253C47.7097 83.273 48.2862 82.9627 48.8887 82.8591C51.4895 82.4119 51.9645 79.5698 53.0929 77.4687C53.7586 76.2288 54.2768 74.9107 54.8121 73.5356C55.1964 72.5485 56.4482 72.2765 57.2163 73.0058C57.3226 73.1067 57.4291 73.2078 57.5364 73.3098C58.1282 73.872 59.0633 73.8673 59.6697 73.321C60.5507 72.5273 61.4211 71.7576 62.0674 70.8326C65.0507 66.5729 67.9845 62.2722 70.6999 57.844C71.9525 55.8005 73.3453 54.5177 75.7434 53.8475C83.7051 51.6225 91.5916 49.1408 99.4455 46.7663C99.7498 46.6743 100.133 46.5161 100.166 46.1999C100.751 41.488 101.134 41.0933 105.906 40.312C110.986 39.4815 114.188 36.7678 115.045 31.6365C115.898 26.5176 116.149 21.2958 116.648 16.1152C117.064 11.7528 117.373 7.37802 117.888 3.02793C118.506 -2.20283 123.265 0.211546 124.411 3.75568C126.071 8.89931 127.39 14.1498 129.005 19.3099C130.394 23.7422 131.857 28.1622 133.538 32.4918C135.788 38.2932 140.39 40.752 146.431 40.8548C148.767 40.8959 151.104 40.9781 153.436 40.8753C156.291 40.752 158.945 41.377 161.232 43.0134C167.417 47.4457 173.659 51.8081 179.609 56.5406C184.005 60.0393 188.029 64.0069 192.391 67.9775C192.775 68.3272 193.312 68.4354 193.828 68.3763C195.745 68.1567 197.477 69.0754 199.21 70.2326C199.828 70.6455 200.034 71.4563 199.708 72.1244C199.246 73.0701 198.785 74.0136 198.311 74.9879C197.922 75.7859 198.305 76.7414 199.104 77.1299C203.28 79.1623 206.302 82.5262 209.644 85.4781C210.876 86.5636 212.199 87.5545 213.505 88.5536C215.965 90.4368 218.688 90.8274 221.68 90.0749C227.465 88.6194 233.246 87.1433 239.073 85.8811C243.592 84.9014 247.87 84.3597 252.624 85.0165C252.652 85.0204 252.68 85.0305 252.704 85.0459ZM130.458 210.609C130.459 210.608 130.461 210.607 130.463 210.607C135.196 210.607 139.93 210.66 144.663 210.574C145.928 210.549 147.321 210.364 148.429 209.805C154.363 206.816 160.334 203.884 166.073 200.554C171.995 197.121 172.493 195.415 170.738 188.725C169.156 182.701 166.234 177.254 163.144 171.925C159.489 165.618 156.638 159.158 156.456 151.692C156.361 147.773 155.232 144.015 153.366 140.5C151.713 137.387 149.155 135.915 145.706 135.87C136.167 135.747 126.826 136.886 117.74 139.957C94.2528 147.905 79.9464 167.205 79.5508 191.303C79.456 197.117 81.9778 201.064 87.0666 203.366C90.6144 204.974 94.3105 206.31 98.0354 207.453C108.604 210.697 119.514 210.997 130.453 210.611C130.455 210.611 130.456 210.61 130.458 210.609ZM46.6479 148.539C46.6482 148.538 46.6488 148.538 46.6495 148.538C47.609 148.46 48.2845 148.456 48.9394 148.349C57.2794 146.988 65.0507 143.941 72.5583 140.216C74.9358 139.036 77.1609 137.507 79.32 135.948C80.1441 135.352 80.8405 134.312 81.1537 133.333C87.4457 113.799 93.6759 94.2441 99.9103 74.6934C99.9286 74.6356 99.9459 74.5775 99.9622 74.5191C100.185 73.721 99.625 72.8901 98.7973 72.8505C96.7279 72.7517 94.9015 73.4694 93.1485 74.5042C85.8593 78.8091 79.0769 83.8088 72.9085 89.5939C63.8681 98.0679 56.2245 107.553 51.6919 119.259C48.0833 128.578 46.7645 138.266 46.6444 148.538C46.6444 148.54 46.6471 148.541 46.6479 148.539ZM199.361 116.482C199.362 116.483 199.362 116.484 199.361 116.484C198.698 116.484 198.085 116.394 197.505 116.5C194.542 117.027 191.555 117.467 188.637 118.194C182.366 119.761 176.334 121.993 170.709 125.229C167.561 127.042 166.996 128.235 167.627 131.775C167.854 133.054 168.084 134.345 168.492 135.574C171.018 143.234 173.354 150.968 176.226 158.496C178.732 165.063 181.814 171.415 184.752 177.809C185.039 178.43 185.472 178.985 185.971 179.562C186.672 180.373 188.01 180.242 188.519 179.298C191.56 173.662 193.85 168.211 195.313 162.411C199.046 147.613 199.643 132.527 199.512 117.372C199.512 117.118 199.43 116.859 199.36 116.483C199.359 116.482 199.361 116.481 199.361 116.482ZM101.793 125.883C101.793 125.886 101.795 125.887 101.797 125.888C102.228 125.945 102.552 126.027 102.877 126.027C109.544 126.031 116.166 125.571 122.651 123.889C127.06 122.746 131.243 121.089 135.038 118.523C137.996 116.521 139.36 113.774 138.837 110.255C138.495 107.965 138.095 105.637 137.349 103.458C133.682 92.7804 127.88 83.1469 122.252 73.4352C121.391 71.9468 119.899 71.992 118.976 73.4352C118.502 74.1794 118.115 75.0018 117.822 75.8364C116.438 79.7712 115.024 83.6978 113.755 87.6696C109.832 99.9798 105.972 112.315 102.094 124.637C101.975 125.011 101.909 125.406 101.793 125.883C101.793 125.883 101.793 125.883 101.793 125.883ZM143.147 69.8694C143.147 69.8683 143.146 69.8678 143.145 69.8686L142.658 70.377C142.586 70.4525 142.561 70.5615 142.594 70.6608C145.447 79.4393 148.176 88.2616 151.215 96.9783C152.352 100.243 154.103 103.318 155.789 106.361C157.326 109.14 159.769 110.16 163.045 109.864C171.05 109.146 177.615 105.011 184.374 101.626C184.826 101.4 185.145 100.966 185.179 100.463C185.369 97.6745 184.545 95.3667 182.922 93.3231C181.773 91.8799 180.615 90.3998 179.243 89.1827C170.178 81.1281 159.905 75.0552 148.487 70.9641C146.794 70.3557 144.932 70.2241 143.148 69.8707C143.147 69.8705 143.147 69.87 143.147 69.8694ZM61.2078 186.181C61.5861 186.033 61.8459 185.692 61.9574 185.302C63.7372 179.067 65.5186 172.903 67.2304 166.715C67.4073 166.078 67.4843 165.414 67.5485 164.699C67.6331 163.759 66.8503 162.943 65.9093 163.024C60.7509 163.471 56.056 164.545 52.1122 167.92C50.5547 169.252 49.2608 171 49.644 173.093C50.5794 178.224 52.7756 182.706 57.3577 185.658C58.5462 186.423 59.7956 186.734 61.2078 186.181Z" fill="black"/>
</svg>